<svg id="Layer_11" data-name="Layer 11" xmlns="http://www.w3.org/2000/svg" viewBox="0 0 467.7 364.46"><path d="M1186.36,695.81v16.07a13.83,13.83,0,0,0,9.33,13.08l41.87,14.42v1.35a12.34,12.34,0,0,0,8.33,11.67l26.75,9.21a18.86,18.86,0,0,0,19.48-4.49L1311,738.19v6.1a14.27,14.27,0,0,0,9.63,13.5l21.5,7.41a14.25,14.25,0,0,0,14.71-3.4l13.67-13.66a14.14,14.14,0,0,1,14.63-3.38l20.94,7.21a14.25,14.25,0,0,0,14.71-3.4l163.81-163.81a14.31,14.31,0,0,0,4.19-10.11V564.56a20.91,20.91,0,0,1,6.12-14.79l55.41-55.41a12.63,12.63,0,0,0,3.7-8.94V463.8a12.63,12.63,0,0,0-8.41-11.91l-135.25-48a40.57,40.57,0,0,0-14.15-2.33l-94,1.32a21.35,21.35,0,0,0-14.85,6.27l-76.23,76.23a21.43,21.43,0,0,0-6.28,15.15v17.34a13.15,13.15,0,0,0,8.87,12.43l15.38,5.29a5.41,5.41,0,0,1,2.05,8.94L1191.69,683A18,18,0,0,0,1186.36,695.81Z" transform="translate(-1186.36 -401.51)"/></svg>