<svg id="Layer_4" data-name="Layer 4" xmlns="http://www.w3.org/2000/svg" viewBox="0 0 480.54 388.64"><defs><style>.cls-1{fill:#fff;}.cls-2{fill:#ececec;}.cls-3{fill:#403d38;}</style></defs><polyline class="cls-1" points="346.78 3.19 306.84 37.04 192.69 37.04 126.07 106.66 131.29 140.22 155.56 154.13 4.03 296.18 10.34 337.84 40.19 351.7 61.22 361.46 101.66 381.15 126.11 361.46 131.29 371.89 159.2 381.15 177.43 375.2 199.08 355.65 232.34 367.22 406.92 198.23 406.92 169.63 473.3 101.55 477.39 51.38"/><path class="cls-2" d="M1399.55,444.59,1358,457.77a13.43,13.43,0,0,0-9.37,12.81V497l39.58-36.26" transform="translate(-1187.95 -349.24)"/><path class="cls-2" d="M1288.56,722.69v-27.5a11.39,11.39,0,0,1,3.33-8l57.91-58.64a109.58,109.58,0,0,1,45.36-27.27l10.59-3.25-76.23,79.12.72,11.66-22.08,24.54Z" transform="translate(-1187.95 -349.24)"/><path class="cls-2" d="M1352.92,730.39V702.9a11.39,11.39,0,0,1,3.33-8l47-46.19a109.44,109.44,0,0,1,45.35-27.27l10.59-3.25-65.32,66.67.73,11.66L1372.53,721Z" transform="translate(-1187.95 -349.24)"/><path class="cls-2" d="M1235.51,696.69V669.2a11.37,11.37,0,0,1,3.33-8l48.92-47.64a109.44,109.44,0,0,1,45.35-27.27L1343.7,583l-67.23,68.11L1261.08,667,1250.45,686Z" transform="translate(-1187.95 -349.24)"/><path class="cls-2" d="M1593.51,497.64v-28a16.72,16.72,0,0,1,4.9-11.83l57.19-57.18,9.74,33.15-12.94,30-57.53,55.15Z" transform="translate(-1187.95 -349.24)"/><path class="cls-2" d="M1420.29,716.46V695.3a9.71,9.71,0,0,1,2.84-6.87l171.5-171.5.24,30.54Z" transform="translate(-1187.95 -349.24)"/><path class="cls-3" d="M1531.82,349.24v12a11,11,0,0,1,3.54.6l119.56,41.77a2.35,2.35,0,0,1,1.57,2.22v42.24a10.36,10.36,0,0,1-3,7.36L1598.83,510a31.29,31.29,0,0,0-9.23,22.27v7.87a13.15,13.15,0,0,1-3.87,9.36L1427.9,707.37a15.65,15.65,0,0,1-16.2,3.7l-21-7.33a15.83,15.83,0,0,0-16.44,3.76L1358,723.78a7.11,7.11,0,0,1-5.06,2.09,7.23,7.23,0,0,1-2.17-.33l-24.94-7.94a13.77,13.77,0,0,0-23.43-8.18L1292,719.8a6.58,6.58,0,0,1-6.69,1.62l-31.93-10.28V704l-7.76-2.93-38.12-14.4a11.76,11.76,0,0,1-7.57-11V660.93a21.71,21.71,0,0,1,6.38-15.33l130.59-129.55a14.61,14.61,0,0,0-5.09-24l-9.09-3.45a5.4,5.4,0,0,1-3.47-5V457.39a2.83,2.83,0,0,1,.84-2l60.16-60.17a12.9,12.9,0,0,1,9.19-3.81H1485a29.17,29.17,0,0,0,20.77-8.6l18.4-18.4a10.69,10.69,0,0,1,7.61-3.15v-12m0,0a22.75,22.75,0,0,0-16.09,6.66l-18.4,18.4a17.35,17.35,0,0,1-12.28,5.09h-95.57a25,25,0,0,0-17.68,7.32l-60.16,60.17a14.85,14.85,0,0,0-4.36,10.51v26.15a17.39,17.39,0,0,0,11.21,16.25l9.09,3.45a2.61,2.61,0,0,1,.91,4.29L1197.89,637.07a33.61,33.61,0,0,0-9.94,23.86V675.7a23.73,23.73,0,0,0,15.33,22.19l38.12,14.4a10.43,10.43,0,0,0,7.23,9.92l33,10.64a18.65,18.65,0,0,0,18.87-4.56l10.38-10.38a1.76,1.76,0,0,1,3,1.25h0a9.92,9.92,0,0,0,6.91,9.45l26.31,8.37a19.39,19.39,0,0,0,5.81.9,19.17,19.17,0,0,0,13.55-5.62L1382.78,716a3.87,3.87,0,0,1,2.72-1.12,4,4,0,0,1,1.27.21l21,7.33a27.61,27.61,0,0,0,28.65-6.54L1594.22,558a25.28,25.28,0,0,0,7.39-17.85v-7.87a19.47,19.47,0,0,1,5.71-13.78l54.6-54.61a22.38,22.38,0,0,0,6.57-15.85V405.83a14.35,14.35,0,0,0-9.61-13.55l-119.56-41.77a22.7,22.7,0,0,0-7.51-1.27Z" transform="translate(-1187.95 -349.24)"/><path class="cls-3" d="M1461.58,612.55a3.63,3.63,0,0,0-2.59,1.08l-61.06,61.06a23,23,0,0,0-6.73,16.25v23.51h7.35V692.13A18.53,18.53,0,0,1,1404,679l60.2-60.2a3.68,3.68,0,0,0-2.6-6.27Z" transform="translate(-1187.95 -349.24)"/><path class="cls-3" d="M1407.9,595.51a3.67,3.67,0,0,0-2.6,1.08l-81.93,81.93a14.11,14.11,0,0,0-4.13,10v32.64h7.35v-30a13,13,0,0,1,3.81-9.2l80-80a3.8,3.8,0,0,0,0-5.46,3.67,3.67,0,0,0-2.46-1Z" transform="translate(-1187.95 -349.24)"/><path class="cls-3" d="M1349.52,575.71a3.65,3.65,0,0,0-2.6,1.07l-91,91a32.67,32.67,0,0,0-9.57,23.1v17.77a6.46,6.46,0,0,0,6.46,6.46h.89V692.41a29,29,0,0,1,8.48-20.48L1352.12,582a3.67,3.67,0,0,0-2.6-6.27Z" transform="translate(-1187.95 -349.24)"/><path class="cls-3" d="M1403.07,440.63a3.67,3.67,0,0,0-2.6,1.08l-91,91,5.19,5.2,91-91a3.68,3.68,0,0,0,0-5.19h0a3.67,3.67,0,0,0-2.6-1.08Z" transform="translate(-1187.95 -349.24)"/><path class="cls-3" d="M1593.51,489.46h0a3.67,3.67,0,0,0-3.67,3.68v58.65h7.35V493.14a3.68,3.68,0,0,0-3.68-3.68Z" transform="translate(-1187.95 -349.24)"/><path class="cls-3" d="M1324.83,489.34l15.89,5.9a7.57,7.57,0,0,0,8-1.75L1362.2,480v4.85L1339.89,507l-14.63-12.51Z" transform="translate(-1187.95 -349.24)"/><path class="cls-3" d="M1597.19,502.74v3.46a2.3,2.3,0,0,0,3.91,1.64l10.37-10.2L1604.33,515l-9.46,6.64V503.77" transform="translate(-1187.95 -349.24)"/><path class="cls-3" d="M1294.11,718.11l22.26-22.27a10,10,0,0,0,2.94-7.1v-1.66h4.92l-1.53,17.75-26.3,17.87" transform="translate(-1187.95 -349.24)"/><path class="cls-3" d="M1199.89,666v6a16.89,16.89,0,0,0,10.9,15.79l25.86,9.81a7.15,7.15,0,0,0,9.69-6.69h0l4.11,6.16-1.28,13.65L1192,684.15Z" transform="translate(-1187.95 -349.24)"/><path class="cls-3" d="M1253.72,691.28l0,11.34a11.29,11.29,0,0,0,7.64,10.7l22.81,7.81-28.85-1.49-6.13-8.94Z" transform="translate(-1187.95 -349.24)"/><polyline class="cls-3" points="179.18 365.21 206.2 338.19 206.2 359.93 190.16 363"/><path class="cls-3" d="M1398.55,694.11v5.59a9.48,9.48,0,0,0,6.07,8.85l6.9,2.66-7.88,3.24-11.42-4.91" transform="translate(-1187.95 -349.24)"/></svg>