<svg xmlns="http://www.w3.org/2000/svg" viewBox="0 0 394.65 359.73"><defs><style>.cls-1{fill:#fff;}.cls-2{fill:#ececec;}.cls-3{fill:#403d38;}</style></defs><g id="Layer_9" data-name="Layer 9"><path class="cls-1" d="M485.26,352.74l-52.9,51.61H311.13l-73.53,75L235,511l22.09,12.64s-10.38,12.89,1.27,14.94l11.66,2-.91,42.38,15.17,13.57-1.73,27.27,13.9,4.6V653L424,700.49l30-14.81L548.74,582s6.75-32.79,12.23-34.52,55-58.31,55-58.31l4.08-52.84-77.7-81.56L523,352.74Z" transform="translate(-231.06 -347.1)"/><path class="cls-2" d="M580.74,394.11,436,539a12.31,12.31,0,0,0-3.61,8.71V697.05L553.68,579.47l7.29-32,59.09-58.31V436.35Z" transform="translate(-231.06 -347.1)"/><path class="cls-3" d="M530.82,359.1a11.63,11.63,0,0,1,8.23,3.44l71.59,72.31a10.5,10.5,0,0,1,3.06,7.43V481.6a14.71,14.71,0,0,1-4.35,10.49l-52.72,52.72A26.93,26.93,0,0,0,548.7,564v8.19a11.81,11.81,0,0,1-3.49,8.41L433.78,692a9.58,9.58,0,0,1-9.89,2.29L305.3,653.61a4,4,0,0,1-2.67-3.75v-8.34a20.56,20.56,0,0,0-13-19.13v-22.3a20,20,0,0,0-13.24-18.84V549.14a16.29,16.29,0,0,0-11.08-15.44,4.2,4.2,0,0,1-2.86-4v-.49a18.38,18.38,0,0,0-12.81-17.82l-4.44-1.44a3.06,3.06,0,0,1-2.13-2.92V486.28a15.78,15.78,0,0,1,4.65-11.23l57.9-57.9a18.63,18.63,0,0,1,13.26-5.49h104a27.51,27.51,0,0,0,19.35-7.9l42.28-41.48a11,11,0,0,1,7.77-3.18h38.56m0-12H492.26a23.09,23.09,0,0,0-16.18,6.61L433.8,395.18a15.61,15.61,0,0,1-10.94,4.48h-104a30.75,30.75,0,0,0-21.75,9l-57.9,57.89a27.89,27.89,0,0,0-8.16,19.72V507a15.08,15.08,0,0,0,10.45,14.35l4.44,1.43a6.5,6.5,0,0,1,4.49,6.25v.49a16.22,16.22,0,0,0,11,15.57,4.28,4.28,0,0,1,2.91,4.06v32.32a11.71,11.71,0,0,0,7.86,11,8,8,0,0,1,5.38,7.58v23.17a10.74,10.74,0,0,0,7.25,10.16h0a8.57,8.57,0,0,1,5.77,8.1v8.34A16,16,0,0,0,301.41,665L420,705.66a21.58,21.58,0,0,0,22.28-5.16L553.7,589.07a23.9,23.9,0,0,0,7-16.9V564a15.1,15.1,0,0,1,4.42-10.68l52.72-52.72a26.81,26.81,0,0,0,7.86-19V442.28a22.56,22.56,0,0,0-6.52-15.87l-71.6-72.32a23.59,23.59,0,0,0-16.76-7Z" transform="translate(-231.06 -347.1)"/><path class="cls-3" d="M302.75,441.63a11.5,11.5,0,0,0-8.11,3.35l-.72.72L261,478.6a19.74,19.74,0,0,0-5.78,14v44.19h7.34V495.62a19.74,19.74,0,0,1,5.78-14l28.23-28.23a11.5,11.5,0,0,1,11.85-2.74l69.21,23.84a3.87,3.87,0,0,0,1.2.2,3.67,3.67,0,0,0,1.19-7.15l-72.6-25-1-.33a11.19,11.19,0,0,0-3.73-.62Z" transform="translate(-231.06 -347.1)"/><path class="cls-3" d="M551.2,524.53h0a3.68,3.68,0,0,0-3.68,3.68V585h7.35V528.21a3.68,3.68,0,0,0-3.67-3.68Z" transform="translate(-231.06 -347.1)"/><path class="cls-3" d="M457.78,404.35H401v7.35h56.76a3.68,3.68,0,0,0,0-7.35Z" transform="translate(-231.06 -347.1)"/><path class="cls-3" d="M272.34,579.47,281.68,591,403.9,633.08a3.54,3.54,0,0,0,1.19.2,3.67,3.67,0,0,0,1.2-7.14l-134-46.67Z" transform="translate(-231.06 -347.1)"/><path class="cls-3" d="M262.46,532.11l10.61,11.95,131.27,45.2a3.87,3.87,0,0,0,1.2.2,3.68,3.68,0,0,0,1.2-7.15l-144.28-50.2Z" transform="translate(-231.06 -347.1)"/><path class="cls-3" d="M405.73,441.14a3.68,3.68,0,0,0-3.68,3.68v45.55a11.28,11.28,0,0,1-3.3,8l-16.87,16.87a8.72,8.72,0,0,1-6.16,2.55,8.62,8.62,0,0,1-2.83-.47l-64-22a3.6,3.6,0,0,0-1.2-.2,3.67,3.67,0,0,0-3.48,2.48h0a3.68,3.68,0,0,0,2.28,4.67l65.75,22.63a13,13,0,0,0,13.51-3.12h0l16.29-16.28,4.19-4.19a10.85,10.85,0,0,0,3.16-7.65V444.82a3.68,3.68,0,0,0-3.67-3.68Z" transform="translate(-231.06 -347.1)"/><path class="cls-3" d="M284.74,620.45l-2.39,6.95L404,669.29a3.87,3.87,0,0,0,1.2.2,3.68,3.68,0,0,0,1.2-7.15L284.74,620.45Z" transform="translate(-231.06 -347.1)"/><path class="cls-3" d="M305.54,635.39s-10.44,14.81,11.55,22,37.7,13.27,37.7,13.27H334.62l-36.43-14.47-1.7-27.74,10.72,3.74Z" transform="translate(-231.06 -347.1)"/><path class="cls-3" d="M315.53,630.92l-18.77-6.75a9.28,9.28,0,0,1-6.42-8.82V600.26a4.48,4.48,0,0,1,5.94-4.23l7.91,2.72-5-7.54h-16l-.62,35.49L312.83,635Z" transform="translate(-231.06 -347.1)"/><path class="cls-3" d="M289.9,549.85l-8.51-2.93a3.31,3.31,0,0,0-4.39,3.13v25.39a7.59,7.59,0,0,0,4.92,7.11l9.72,3.64-7.32,10.43-15.17-13.57,1-44.43,21.53,7.32Z" transform="translate(-231.06 -347.1)"/><path class="cls-3" d="M245.26,509.89l7,2.33a2.26,2.26,0,0,0,3-2.15V504.4l3.16,4.41-1.27,14.87-13.92-10.34Z" transform="translate(-231.06 -347.1)"/><path class="cls-3" d="M450.19,396.06l-6.13,6a1.34,1.34,0,0,0,.94,2.31h9L443.64,408l-16.94-1.57,16-10.39Z" transform="translate(-231.06 -347.1)"/><path class="cls-3" d="M547.52,553.94v20.27a9.18,9.18,0,0,1-2.6,6.4L531,594.87l22.64-10.55V550.7Z" transform="translate(-231.06 -347.1)"/><path class="cls-3" d="M563.47,537.94l-6.52,6.7a1.21,1.21,0,0,1-2.08-.84v-4.5l-6.13,5.53L552,556.74l12-12.34" transform="translate(-231.06 -347.1)"/></g></svg>