<svg xmlns="http://www.w3.org/2000/svg" viewBox="0 0 468.42 403.03"><defs><style>.cls-1{fill:#fff;}.cls-2{fill:#ececec;}.cls-3{fill:#403d38;}</style></defs><g id="Layer_5" data-name="Layer 5"><polygon class="cls-1" points="299.38 29.71 273.35 58.12 197.12 58.12 125.99 128.73 120.46 160.47 7.38 201.51 7.38 247.44 48.64 261.63 125.99 243.28 125.99 294.41 72.76 347.1 75.3 382.01 112.73 399.48 182.47 331.62 208.64 331.62 267.64 352.81 289.21 339.21 392.69 231.57 406.65 196.66 462.22 138.89 462.22 87.47 383.8 8.13 322.86 8.13 299.38 29.71"/><path class="cls-2" d="M1094.14,392l42.28,50-1.7,48.22L1069,554.47l-2.73,31.31L963.41,686.44l-16.7,15.65V634.74a20.5,20.5,0,0,0-13.81-19.37l-11.42-3.93L794.21,737.07l-7.28,9.63V706.45A17.61,17.61,0,0,1,792.1,694Z" transform="translate(-674.2 -347.23)"/><path class="cls-3" d="M801.8,504.73,888.11,475a5.64,5.64,0,0,0,3.81-5.34V451.85a3.26,3.26,0,0,1,2.2-3.08h0a3.26,3.26,0,0,1,4.33,3.08v21.4a8.72,8.72,0,0,1-5.88,8.26l-92.38,31.9" transform="translate(-674.2 -347.23)"/><path class="cls-3" d="M1071,553.43V527.6a3.28,3.28,0,0,0-3.27-3.27h0a3.27,3.27,0,0,0-3.27,3.27v41.74" transform="translate(-674.2 -347.23)"/><path class="cls-3" d="M1048,359.23a11,11,0,0,1,7.83,3.25l71.3,71.29a11.93,11.93,0,0,1,3.51,8.48v39.31a11,11,0,0,1-3.25,7.83l-54.71,54.71a27.87,27.87,0,0,0-8.21,19.82v4.49a21.28,21.28,0,0,1-6.27,15.15L953.44,688.29a17.58,17.58,0,0,1-18.16,4.19L872.5,670.86A17.2,17.2,0,0,0,854.74,675l-59.3,59.15a14.13,14.13,0,0,1-10.05,4.15,14.37,14.37,0,0,1-4.63-.77l-22.91-7.89a8.25,8.25,0,0,1-5.56-7.8V699.87a10.92,10.92,0,0,1,3.22-7.78l42.3-42.3a25.64,25.64,0,0,0,7.56-18.25v-34A15.57,15.57,0,0,0,789.83,582h0a15.58,15.58,0,0,0-5.06.85l-47.59,16.39a40.56,40.56,0,0,1-26.41,0l-20.5-7.06a5.87,5.87,0,0,1-4-5.52l-.1-29.34a6.6,6.6,0,0,1,4.46-6.27l106.61-36.71,8.1-2.79v-22a28.79,28.79,0,0,1,8.48-20.49l52.53-52.52a16.82,16.82,0,0,1,12-5h58.9a28.5,28.5,0,0,0,20.28-8.41l40.72-40.71a11,11,0,0,1,7.83-3.25H1048m0-12h-41.89A23.08,23.08,0,0,0,989.76,354L949,394.7a16.68,16.68,0,0,1-11.79,4.89h-58.9a28.94,28.94,0,0,0-20.46,8.48l-52.53,52.52a41,41,0,0,0-12,29V503L686.75,539.73a18.59,18.59,0,0,0-12.55,17.66l.1,29.34a17.88,17.88,0,0,0,12.05,16.83l20.5,7.06a52.64,52.64,0,0,0,34.23,0l47.58-16.39a3.66,3.66,0,0,1,1.16-.19,3.55,3.55,0,0,1,3.54,3.54v34a13.8,13.8,0,0,1-4,9.76L747,683.6a23,23,0,0,0-6.74,16.27v21.92a20.27,20.27,0,0,0,13.66,19.15l22.92,7.89a26.22,26.22,0,0,0,27.06-6.23l59.3-59.15a5.22,5.22,0,0,1,5.37-1.24l62.79,21.62a29.6,29.6,0,0,0,30.55-7.05L1066.66,592a33.4,33.4,0,0,0,9.79-23.63v-4.49a16,16,0,0,1,4.69-11.33l54.71-54.71a23.08,23.08,0,0,0,6.76-16.32V442.25a24,24,0,0,0-7-17L1064.29,354a23.08,23.08,0,0,0-16.32-6.76Z" transform="translate(-674.2 -347.23)"/><path class="cls-3" d="M978.52,408.36h0a3.26,3.26,0,0,1-3.27,3.27H928l23.41-6.54,10.34-6-2.47,2.42a2.1,2.1,0,0,0,1.47,3.61h14.51A3.27,3.27,0,0,1,978.52,408.36Z" transform="translate(-674.2 -347.23)"/><path class="cls-3" d="M848.61,681.21,920,609.82a3.26,3.26,0,0,1,3.45-.75h0a3.27,3.27,0,0,1,1.17,5.37L893,646a3.4,3.4,0,0,0,1.3,5.62l27.85,9.59a3.27,3.27,0,0,1,1.24,5.4h0a3.27,3.27,0,0,1-3.38.77L890.13,657a10.08,10.08,0,0,0-10.46,2.43l-12.86,13" transform="translate(-674.2 -347.23)"/><path class="cls-3" d="M776,585.87l96-33.14c8.53-2.9,15.13,7.71,8.76,14.08l-78.48,78.45-.13-9.58,72.61-72a1.8,1.8,0,0,0-1.85-3l-93.24,31.2" transform="translate(-674.2 -347.23)"/><path class="cls-3" d="M820.11,578.35h0a21.87,21.87,0,0,0-14.93,20.74v16.2a7.21,7.21,0,0,0,12.32,5.1l3.79-3.79v4.52l-15.38,20.54L794.65,653.1l2.56-58.68-2.56-9.57,7.67-5.62,12.26-3.71Z" transform="translate(-674.2 -347.23)"/><path class="cls-3" d="M856.67,581.64,855.22,583a4.5,4.5,0,0,1-3.11,1.24h-4.77a1.94,1.94,0,0,0-1.79,2.67l.68,1.67a3.9,3.9,0,0,1-.87,4.26l-6.56,6.51" transform="translate(-674.2 -347.23)"/><path class="cls-3" d="M882.84,674.5l-10.72-3.8a1.78,1.78,0,0,1-.67-2.93l5.14-5.21L871,662s-11.17,10-11.17,10.21S877,678.84,877,678.84" transform="translate(-674.2 -347.23)"/></g></svg>