<svg id="Layer_11" data-name="Layer 11" xmlns="http://www.w3.org/2000/svg" viewBox="0 0 419.26 369.27"><path d="M720.66,744.39v31.82a9.13,9.13,0,0,0,6.15,8.63L759,795.92a6,6,0,0,1,4,5.62h0a6.39,6.39,0,0,0,4.32,6.05l32.83,11.31a10.73,10.73,0,0,0,11.06-2.55L901,726.58A10.83,10.83,0,0,1,912.18,724l30.37,10.46a14.82,14.82,0,0,0,15.29-3.53l177.61-177.61a15.24,15.24,0,0,0,4.46-10.78V522.45a15.44,15.44,0,0,0-10.41-14.6l-165.5-57a12,12,0,0,0-12.41,2.87L770.48,634.84a25.45,25.45,0,0,0-7.46,18V689.3a18.43,18.43,0,0,1-5.39,13l-33.37,33.36A12.34,12.34,0,0,0,720.66,744.39Z" transform="translate(-720.66 -450.21)"/></svg>